<?xml version="1.0" encoding="utf-8"?>
<!-- Generator: Adobe Illustrator 21.0.0, SVG Export Plug-In . SVG Version: 6.00 Build 0)  -->
<svg version="1.1" id="Layer_1" xmlns="http://www.w3.org/2000/svg" xmlns:xlink="http://www.w3.org/1999/xlink" x="0px" y="0px"
	 viewBox="0 0 340.2 169.2" enable-background="new 0 0 340.2 169.2" xml:space="preserve">
<title>FUZEN-logo</title>
<path fill="#FFFFFF" d="M212.6,85.6c-0.1,0,4.5,2,5.7,4.1l1.3,2.3l0.6,1h22.3c-10.2-22-29.8-38.1-53.3-43.9c0.1,0.1,0.2,0.2,0.2,0.3
	c0.1,0.7,1.1,1.4,1.2,2.2c0.1,0.6,0.2,1.1,0.3,1.7s0.6,0.7,0.9,1s1.6,0.3,2.1,0.6c0.7,0.3,1.3,0.7,1.9,1.2c0.4,0.4,0.6,1.1,1,1.4
	c0.9,0.8,1.7,1.8,2.1,2.9c0,0,0.1,0.2,0.1,0.2v0.1c0.1,0.2,0.3,0.4,0.4,0.7c0.1,0.2,0.1,0.3,0.2,0.5c0-0.1-0.1-0.1-0.1-0.2
	c0.2,0.5,0.3,1,0.4,1.5c0-0.1,0-0.2-0.1-0.3c0,0.1,0.1,0.2,0.1,0.4v-0.1c0.1,0.3,0.2,1.2,0.2,1.1c0,0.6,0.1,1.1,0.1,1.7
	c0.1,1.1-0.2,2.3-0.9,3.2c-0.9,1-2.2,1.7-3.6,1.8c-1,0-1.9-0.2-2.8-0.6c0.3,1.2,0.9,1.1,1.9,1.5c1.3,0.5,3,0.7,3.6,2.2
	c0.2,0.5,0.2,0.8,0.6,1l1.6,0.6c0.6,0.1,1.1,0.4,1.6,0.6c0.4,0.3,0.6,0.9,0.8,1.3c0.5,1,1.3,1.9,2.1,2.6c0.8,0.6,1.5,1.3,2.3,1.9
	C209.1,83.3,210.7,85,212.6,85.6 M151,35.1c-0.3-0.5-0.6-1-0.8-1.4c-0.2-0.6-0.3-1.3-0.3-2c-0.1-1.9-0.5-4-0.5-5.8
	c-0.1-1.1-0.2-2.2-0.1-3.3c-32.4,6.5-60,27.9-74.4,57.6H46.5V59.5h23.6c3-4.5,6.3-8.8,9.9-12.9H46.5V25.9h57.3
	c8-5.3,16.7-9.7,25.8-12.9H33.6v33.6H0v12.9h33.6v33.6H83C94.4,63.4,120,41.6,151,35.1 M152.6,52.6l-0.4-1c-0.4-0.8-0.7-1.7-0.8-2.6
	c-23.7,5.7-43.5,21.9-53.8,44h30.4c4-5.1,9-9.4,14.6-12.7c0.1-0.2,0.3-0.3,0.2-0.6c-0.1-0.9-0.2-1.8-0.1-2.8c-0.2-0.4-0.5-0.7-0.8-1
	c-0.3-0.1-0.5-0.3-0.8-0.4c-0.9-0.8-1.8-1.6-2.6-2.5c-1-1.5-0.8-2.8-0.8-4.5c0,0.2,0.1-4.2,0.2-6.5c0.1-0.9,0.3-1.9,0.8-2.7
	c0.6-0.9,1.3-1.6,2.1-2.3c2.5-1.6,8.8-3.4,8.8-3.4c0.4-0.1,0.9-0.2,1.3-0.3s0.6-0.1,1-0.2C152.5,53,153,53.2,152.6,52.6 M177.1,38.5
	c0-0.1-0.1-0.1-0.1-0.2c-0.1-0.2-0.2-0.4-0.4-0.6c0-0.1-0.1-0.2-0.1-0.2c-0.2-0.2-0.4-0.5-0.5-0.7c-0.7-0.9-1.6-1.7-2.5-2.4
	c-0.3-0.2-0.6-0.5-1-0.7s-0.5-0.3-0.8-0.5c-0.1-0.1-0.2-0.1-0.2-0.2c0.7-2,1.3-4.1,2-6.1c0.3-0.4,0.5-0.7,0.8-1.1
	c0.1-0.1,0.2-0.2,0.2-0.4c0.1-0.1,0.2-0.1,0.2-0.2c0.2-0.2,0.3-0.3,0.4-0.5c0.3-0.7,0.4-1.4,0.2-2.1l-0.7-0.7
	c-0.1-0.1-0.2-0.2-0.3-0.3s-0.2-0.2-0.4-0.3c-0.4-0.3-0.8-0.6-1.1-0.9l-0.4-0.3h-0.1l-0.1-0.1c-0.4-0.2-0.9-0.5-1.3-0.7l-0.2-0.1
	c-0.1,0-0.1-0.1-0.2-0.1h-0.1l-0.1-0.1h-0.1l-0.2-0.1l-0.1-0.1h-0.1l-0.1-0.1h-0.1l0,0h-0.1c0,0-0.1,0-0.1-0.1h-0.1l-0.2-0.1
	c-0.1,0-0.2-0.1-0.3-0.1c-0.2-0.1-0.3-0.1-0.5-0.2l-0.3-0.1c-0.1,0-0.1,0-0.2,0s-0.1-0.1-0.1-0.1s-0.2,0-0.3,0s-0.2,0-0.3,0
	l-0.2-0.1h-0.3c-0.1,0-0.2-0.1-0.3-0.1h-0.4c-0.2,0-0.4-0.1-0.6-0.1h-1.4c-0.4-0.5-0.7-1-1.1-1.5c-0.1-0.2-0.2-0.3-0.3-0.5
	c-0.4-0.5-0.9-1.2-1.3-1.7c-0.1-0.1-0.1-0.2-0.2-0.3c0-0.1,0-0.2,0-0.2s0-0.1,0-0.2s0-0.3,0-0.4s-0.1-0.3-0.1-0.4c0-0.2,0-0.3,0-0.5
	c0-0.1,0-0.2,0-0.3c0-0.2-0.1-0.4-0.1-0.5s0-0.4,0-0.5s0-0.4,0-0.6s0-0.2-0.1-0.3s0-0.4-0.1-0.6s0-0.2,0-0.3c0-0.1-0.1-0.2-0.1-0.3
	c0-0.3,0-0.6,0-0.8c0-0.3,0-0.5,0.1-0.8c0-0.3,0.1-0.6,0.1-0.9c0-0.1,0-0.2,0.1-0.3s0-0.2,0-0.3s0-0.2,0.1-0.3s0-0.2,0-0.2
	s0.1-0.1,0.1-0.2c0-0.2,0-0.4,0-0.5c0-0.1,0-0.1,0-0.2s0-0.2,0-0.3S161,4.1,160.9,4c0-0.1-0.1-0.3-0.1-0.4c-0.1-0.2-0.2-0.5-0.3-0.7
	c-0.1-0.2-0.2-0.4-0.3-0.6c0,0-0.1-0.1-0.1-0.1c0,0,0-0.1,0-0.1s-0.2-0.4-0.3-0.5s-0.1-0.1-0.2-0.2s-0.3-0.4-0.4-0.6
	s-0.2-0.2-0.2-0.2s-0.1,0-0.2,0h-0.2c-0.3,0-0.6,0-0.8-0.1s-0.4-0.1-0.5-0.1s-0.4,0-0.6,0l-0.5-0.1c-0.5,0-1.1-0.1-1.6-0.1
	c0,0.1-0.1,0.2-0.1,0.3c0,0.1,0,0.2,0,0.3c0,0.2,0,0.5,0,0.7c0,0.5,0,1,0,1.5c0,0.1,0.1,0.2,0.1,0.3s0,0.2,0,0.4s0,0.2,0.1,0.2
	s0,0.2,0,0.3s0,0.2,0.1,0.2s0,0.2,0,0.3s0,0.1,0.1,0.2s0,0.1,0,0.2s0.1,0.1,0.1,0.2s0,0.1,0,0.1s0.1,0.1,0.1,0.2s0,0.1,0,0.2
	s0.1,0.2,0.1,0.3s0.1,0.2,0.1,0.3s0.1,0.1,0.1,0.1s0,0.1,0,0.2s0,0.1,0.1,0.1s0,0.1,0,0.2s0.1,0.2,0.1,0.3s0.2,0.4,0.2,0.6
	c0.1,0.1,0.1,0.3,0.2,0.4l0,0c0,0,0,0.1,0,0.1s0.1,0.2,0.1,0.3V9c0,0.1,0.1,0.1,0.1,0.2c0,0.2,0,0.4-0.1,0.6c0,0.1,0,0.3,0,0.4
	s-0.1,0.2-0.1,0.4s0,0.1,0,0.2s0,0.1,0,0.2s0,0.3,0,0.4s-0.1,0.1-0.1,0.2s0,0.3,0,0.4c0,0.1,0,0.2,0,0.2c0,0.2-0.1,0.3-0.1,0.5
	s0,0.2,0,0.3s-0.1,0.2-0.1,0.3s0,0.2,0,0.3s-0.1,0.2-0.1,0.2s0,0.2,0,0.3s-0.1,0.2-0.1,0.3s0,0.2,0,0.2s-0.1,0.2-0.1,0.3
	s0,0.2,0,0.3s-0.1,0.2-0.1,0.3s0,0.2,0,0.3s0,0.1,0,0.1s0,0.3,0,0.5s-0.1,0.2-0.1,0.2s0,0.3,0,0.4s-0.1,0.2-0.1,0.4c0,0.3,0,0.8,0,1
	c0,0.1,0,0.1,0,0.2c0,0.3,0,0.7,0,1s0,0.5,0,0.8s0,0.2,0,0.2c0,0.3,0,0.6,0,0.9c0,0.1,0,0.2,0,0.2s0,0.4,0,0.6s0,0.4,0,0.6
	c0,0.4,0,0.6,0.1,0.9s0,0.6,0,0.9c0,0.2,0.1,0.3,0.1,0.5c0,0.4,0,0.7,0,1.1c0.1,0.3,0.1,0.6,0.1,0.9c0,0.1,0,0.1,0,0.2s0,0.5,0,0.8
	c0,0.1,0,0.2,0.1,0.4s0,0.5,0,0.8s0,0.2,0,0.4s0,0.3,0,0.4s0.1,0.3,0.1,0.5s0,0.4,0,0.5s0,0.3,0.1,0.5s0.1,0.3,0.1,0.5s0,0.4,0,0.6
	c0,0.1,0,0.2,0,0.3c0,0.2,0,0.3,0.1,0.4s0.1,0,0.1,0.1s0.1,0.2,0.2,0.2s0.3,0.3,0.4,0.4c0.3,0.3,0.6,0.6,0.9,0.8s0.6,0.6,0.9,0.9
	c0,0,0,0,0,0.1c0.3,0.2,0.5,0.5,0.8,0.7c0,0.1,0,0.2,0.1,0.2c0,0.3,0,0.5,0,0.8c0,0.1-0.1,0.1-0.1,0.2s0,0.2,0,0.3s-0.1,0.1-0.1,0.2
	s0,0.1,0,0.2s-0.1,0.1-0.1,0.1s0,0.1,0,0.2s-0.1,0.1-0.1,0.2s0,0.1,0,0.2s-0.1,0.1-0.1,0.2s0,0.1,0,0.1c-0.1,0.2-0.1,0.3-0.2,0.5
	c-0.1,0.1-0.1,0.2-0.1,0.4c0,0,0,0.1,0,0.1c0,0-0.1,0.1-0.1,0.1s0,0.1,0,0.2s0,0,0,0s0,0.1,0,0.1s-0.1,0.2-0.1,0.3s0,0.1-0.1,0.1
	s0,0.1,0,0.2s0,0.1-0.1,0.1V42c0,0,0,0,0,0.1s0,0.1,0,0.2s0,0.1-0.1,0.1s0,0.1,0,0.2s0,0.1-0.1,0.1s0,0.1,0,0.1s-0.1,0.2-0.1,0.3
	c-0.1,0.3-0.1,0.5-0.2,0.8c0,0.2-0.1,0.2-0.1,0.3s0,0.1,0,0.2s-0.1,0.1-0.1,0.1s0,0.3-0.1,0.4s-0.1,0.3-0.1,0.4s0,0.2,0,0.4
	s0,0.2,0,0.4s-0.1,0.2-0.1,0.3s0,0.2,0,0.4s-0.1,0.2-0.1,0.3s0,0.4,0,0.6s0,0.2,0,0.3s0,0.1,0,0.2s0,0.1,0,0.2c0,0.2,0,0.3,0,0.5
	c0,0,0,0.1,0,0.1c0,0,0,0.1,0,0.1l0.2,0.4c0,0,0,0.1,0,0.1s0.1,0,0.1,0.1s0,0.1,0,0.1s0.1,0.2,0.2,0.3s0.1,0.2,0.1,0.3
	c0.1,0.4,0.3,0.7,0.4,1.1c0.1,0.2,0.1,0.4,0.2,0.5l0,0l0.1,0.2l0.1,0.3l0,0c0,0,0,0.1,0,0.1s0,0,0,0s0,0.1,0,0.1l0.1,0.2l0.5,1
	l0.1,0.2l0,0c0,0.1,0.1,0.1,0.1,0.2c0,0.1,0,0.2,0,0.3c0,0.5,0,1.1,0.1,1.6c0,0.3,0,0.7-0.1,1c-0.2,0.2-0.4,0.3-0.6,0.4l-0.2,0.1
	c-0.1,0-0.1,0.1-0.1,0.1s-0.2,0-0.2,0h-0.2c-0.5,0-1,0.1-1.5,0.1c-0.1,0-0.1,0-0.2,0c-0.2,0-0.4,0-0.6,0s-0.4,0-0.6,0l-0.3,0.1
	c-0.5,0.1-0.9,0.1-1.4,0.2c-0.1,0-0.2,0.1-0.2,0.1h-0.2l-0.2,0.1h-0.2c-0.1,0-0.1,0-0.2,0.1s-0.2,0-0.2,0s-0.2,0.1-0.2,0.1
	c-0.3,0.1-0.6,0.1-0.9,0.2c-0.2,0.1-0.4,0.1-0.7,0.2c-0.1,0.1-0.2,0.1-0.4,0.1c-0.2,0.1-0.3,0.1-0.5,0.1c-0.1,0.1-0.3,0.1-0.4,0.1
	c-0.4,0.1-0.8,0.3-1.2,0.4c-1.5,0.5-2.9,1.2-4.2,2c-0.1,0.1-0.2,0.1-0.2,0.2c0,0.2,0,0.4,0,0.5c0,0.2,0,0.5,0,0.7s0,0.1,0,0.2
	s0,0.3,0,0.5c0,0.3,0,0.7,0,1.1s0,0.7,0,1.1c0,0.2,0,0.4,0,0.7c-0.1,0.8,0,1.5-0.1,2.3c0,0.2,0,0.4,0,0.5c0,0.4,0,0.7,0,1.1
	c0.1,0.2,0.3,0.4,0.4,0.6s0.1,0.2,0.2,0.2c0.1,0.1,0.2,0.2,0.4,0.2h0.1c0,0,0.1,0.1,0.1,0.1s0.1,0,0.2,0s0,0,0,0h0.1l0.6,0.8
	l0.2,0.1c0.1,0,0.2,0,0.2,0.1s0.1,0.2,0.1,0.4s0.1,0.1,0.1,0.2s0,0.1,0,0.2s0.1,0.2,0.1,0.3c0.4,0.3,0.8,0.5,1.2,0.9
	c0,0.2,0.1,0.2,0.1,0.4c0.2,0.4,0.3,0.8,0.4,1.1c0,0,0,0,0,0.1s0,0.1,0,0.1c0,0.1,0.1,0.1,0.1,0.2c0,0.2,0,0.4-0.1,0.6
	c0,0.2,0,0.5,0,0.7c0,0.2,0,0.5,0,0.7c0,0.6,0.1,1.3,0.3,1.9c0.4,0.4,0.8,0.9,1.1,1.4c0.3,0.4,0.5,0.8,0.8,1.2
	c0.1,0.1,0.2,0.3,0.2,0.4c0,0.1,0,0.3,0,0.4c0,0.1,0,0.1-0.1,0.2c-0.1,0.1-0.1,0.1-0.2,0.2c-0.1,0.1-0.2,0.2-0.4,0.2
	c-0.1,0-0.2,0-0.3,0c-0.2,0-0.4,0-0.6,0h-0.3c-0.2,0-0.4,0-0.6,0s-0.4,0.1-0.5,0.1c-0.2,0-0.3,0.1-0.5,0.1l-0.5,0.2
	c-0.4,0.2-0.8,0.4-1.1,0.7c-0.1,0.1-0.3,0.2-0.3,0.4s0.1,0.2,0.2,0.2s0.1,0.1,0.1,0.2c0.2,0.2,0.4,0.5,0.7,0.6
	c0.1,0.1,0.3,0.2,0.5,0.2c0.1,0.1,0.2,0.1,0.3,0.1h0.2l0.2,0.1h0.2h0.2c0.1,0,0.3,0,0.4,0c0.1,0,0.3,0.1,0.4,0.1h0.5
	c0.3,0,0.7,0,1,0h0.2c0.1,0,0.3,0,0.5,0s0.2-0.1,0.3-0.1s0.2,0,0.4,0c0.7-0.1,1.5-0.1,2.2,0c0.6,0,1.2,0,1.8,0h0.5
	c0.2,0,0.4,0,0.5,0h0.2h0.1h0.5l0.6,0.1c0.2,0,0.4,0,0.6,0h0.3h0.3c0.2,0,0.4,0.1,0.6,0.1s0.4,0,0.6,0.1c0.4,0.1,0.8,0,1.2-0.1
	c0.4-0.1,0.7-0.5,0.9-0.9c0-0.2,0.1-0.5,0.1-0.8c0,0,0-0.1,0-0.1s0-0.1,0-0.1s0-0.1,0-0.1s0-0.2,0-0.3s0-0.1-0.1-0.1s0-0.1,0-0.2
	S162,84.1,162,84s0-0.1,0-0.2s-0.1-0.1-0.1-0.2c0,0,0-0.1,0-0.1l-0.1-0.2v-0.1c0-0.1-0.1-0.2-0.1-0.3s0,0-0.1-0.1s0-0.1,0-0.1
	s-0.1-0.1-0.1-0.2v-0.1c-0.1-0.2-0.1-0.3-0.1-0.5c0-0.3,0-0.5,0-0.8c0-0.5,0-1.2,0.1-1.6c0-0.1,0-0.2,0-0.2s0-0.1,0-0.2
	c0-0.1,0-0.1,0-0.2c0-0.1,0-0.2,0-0.2s-0.1-0.1-0.1-0.2s0-0.1,0-0.1c0-0.1-0.1-0.2-0.1-0.3c0-0.1,0-0.1-0.1-0.2c0,0,0-0.1,0-0.1
	c-0.1-0.2-0.1-0.4-0.2-0.5s-0.1-0.2-0.2-0.4c-0.2-0.3-0.4-0.7-0.5-1c0,0,0-0.1,0-0.1s0,0-0.1-0.1s0-0.1,0-0.1l-0.1-0.2
	c0,0,0,0-0.1-0.1s0-0.1,0-0.1c-0.2-0.3-0.4-0.6-0.6-0.9l-0.5-0.8c-0.1-0.1-0.2-0.3-0.3-0.5c0-0.2,0-0.4,0-0.6c0-0.3,0-0.6,0-0.9
	c0-0.3,0-0.6,0-0.9c0.7,0,1.3,0,2,0c0.2,0,0.4,0,0.6,0c0.6,0,1.4,0,2,0c0.2,0,0.5,0,0.7,0c0.1,0.1,0.2,0.1,0.4,0.2l0.4,0.2l0.7,0.4
	l1.4,0.9c1.6,1,3.1,2,4.7,2.9h0.1l0.1,0.1l0.2,0.1c0,0,0,0.1,0.1,0.1s0.1,0,0.1,0l0,0c0.1,0.1,0.3,0.2,0.5,0.3l1,0.7l0.2,0.1
	l0.4,0.3l0.2,0.2c0.2,0.1,0.5,0.3,0.7,0.4c0.3,0.1,0.5,0.3,0.8,0.5c0.3,0.2,0.5,0.3,0.8,0.5c0.1,0.4,0.2,0.8,0.3,1.2
	c0.1,0.1,0.1,0.1,0.2,0.1l0.3,0.2l0.8,0.5c0.1,0.1,0.3,0.1,0.4,0.2l1,0.6l0.2,0.1c0.1,0.1,0.3,0.1,0.4,0.2c0.1,0.1,0.1,0.3,0.1,0.4
	c0,0,0,0,0,0.1l0.1,0.2c0,0.1,0,0.1,0.1,0.2s0,0.1,0,0.1c0.1,0.2,0.2,0.4,0.2,0.6c0.1,0.1,0.3,0.1,0.4,0.2c0.3,0.2,0.6,0.2,0.9,0.4
	c0.1,0,0.1,0.1,0.2,0.1s0.1,0,0.1,0s0.1,0.1,0.2,0.1c0.3,0.2,0.6,0.2,0.9,0.4s0.6,0.3,0.9,0.4c0.1,0.1,0.2,0.2,0.4,0.3h0.1l0,0
	l0.2,0.2c0.1,0,0.1,0.1,0.2,0.1l0.1,0.1c0.4,0.3,0.9,0.7,1.4,1c0.1,0.1,0.2,0.1,0.3,0.2c0.1,0,0.1,0,0.2,0l0.2,0.1h0.2
	c0.1,0,0.1,0.1,0.2,0.1s0.2,0,0.2,0l0.2,0.1l0.7,0.1l0.2,0.1c0.1,0,0.2,0,0.2,0s0.1,0.1,0.2,0.1s0.1,0,0.2,0s0.1,0.1,0.2,0.1
	s0.2,0,0.2,0l0.2,0.1l0.4,0.1c0.2,0.1,0.5,0.1,0.8,0.1h0.2c0.1,0,0.1,0,0.2,0s0.3,0.1,0.4,0.1c0.4,0.3,0.8,0.7,1.2,1l1.2,1.1l1.2,1
	c0.4,0.4,0.8,0.7,1.2,1.1s0.6,0.6,0.9,0.8l0.7,0.6l0.1,0.1c0,0,0.1,0.1,0.2,0.1s0,0.1,0,0.1h0.1c0.2,0.2,0.1,0.2,0.1,0.4
	c0,0.4,0,0.8,0,1.2c0.5,0.7,1,1.4,1.5,2c0.3,0.6,0.8,1.1,1.3,1.4c0.2,0.1,0.4,0.2,0.6,0.3c0.4,0.1,0.9,0.2,1.4,0.2
	c1.3-0.6,2.5-1.2,3.8-1.8l0.7-0.4l0.2-0.1l0,0h0.1l0.4-0.2c0.5-0.2,0.9-0.5,1.4-0.7l0.4-0.2l0.2-0.1h0.1c0.1,0,0.2-0.1,0.2-0.1
	c0.3-0.1,0.5-0.3,0.8-0.4c0.1-0.1,0.2-0.2,0.4-0.2c0.1-0.1,0.2-0.1,0.4-0.2c0.2-0.1,0.4-0.2,0.6-0.3l0.7-0.4h0.1
	c0.3-0.2,0.6-0.3,0.9-0.5c0.3-0.1,0.5-0.2,0.7-0.4c0-0.1-0.1-0.1-0.1-0.2s-0.1-0.1-0.1-0.2c-0.2-0.2-0.4-0.5-0.6-0.7s-0.6-0.7-0.9-1
	s-0.4-0.5-0.6-0.7c-0.1-0.1-0.1-0.1-0.2-0.1c-0.4-0.1-0.9-0.3-1.3-0.4h-0.1l-0.6-0.2l-0.4-0.1l-0.2-0.1h-0.1h-0.1h-0.2
	c-0.1,0-0.1-0.1-0.2-0.1c-0.2-0.2-0.4-0.3-0.6-0.5c-0.5-0.4-1.1-0.9-1.6-1.3c-0.4-0.3-0.7-0.6-1.1-0.9c-1.1-0.9-2.1-1.7-3.2-2.6
	c-0.3-0.2-0.6-0.4-0.8-0.6c-0.4-0.4-0.9-0.8-1.4-1.1c-0.5-0.9-1.1-1.8-1.6-2.6c-0.1-0.1-0.2-0.1-0.4-0.1l-0.2-0.1h-0.2l-0.2-0.1
	c-0.2,0-0.3,0-0.4-0.1H198l-0.3-0.1c-0.1,0-0.1,0-0.2,0l-0.2-0.1c-0.1,0-0.2,0-0.3,0l-0.5-0.1h-0.2l-0.2-0.1c-0.2,0-0.4-0.1-0.7-0.1
	c-0.1-0.1-0.1-0.2-0.1-0.4s-0.1-0.1-0.1-0.2s0-0.1,0-0.2s0-0.1-0.1-0.2s0-0.1,0-0.2s-0.1-0.1-0.1-0.1s0-0.1,0-0.2s-0.1-0.1-0.1-0.2
	s0-0.2,0-0.2s-0.1-0.4-0.1-0.6c-0.2-0.1-0.3-0.1-0.5-0.1c0,0-0.1-0.1-0.1-0.1h-0.2c-0.1,0-0.1-0.1-0.2-0.1s-0.1,0-0.2,0
	s-0.1-0.1-0.2-0.1l-0.3-0.1l-0.5-0.1l-0.3-0.1h-0.2c0,0-0.1-0.1-0.1-0.1c-0.3,0-0.5-0.1-0.8-0.2c0-0.1,0-0.3-0.1-0.4
	c0-0.1,0-0.1,0-0.2s-0.1-0.1-0.1-0.1s0-0.1,0-0.2s-0.1-0.1-0.1-0.2c0-0.1,0-0.1,0-0.2c-0.1-0.1-0.2-0.2-0.4-0.2s-0.1-0.1-0.1-0.1
	l-0.3-0.1c-0.3-0.1-0.6-0.3-0.9-0.4c-0.2-0.6-0.2-1.4-0.4-2c-0.2-0.1-0.4-0.1-0.6-0.2c-0.2,0-0.4-0.1-0.6-0.2h-0.2l-0.6-0.2
	c0,0-0.1,0-0.1-0.1s-0.1,0-0.2,0l-0.1-0.1l-0.5-0.1c0,0-0.1-0.1-0.1-0.1h-0.2c-0.1,0-0.2-0.1-0.3-0.1c-0.1-0.1-0.1-0.3-0.2-0.4
	c-0.2-0.4-0.4-0.8-0.6-1.2c-0.7-0.4-1.4-0.7-2.1-1.1c0-0.3,0-0.7-0.1-1c0-0.6,0-1.2,0-1.7c0-0.1,0-0.1,0-0.2c0-0.2,0-0.4,0-0.7
	c0-0.1-0.1-0.1-0.1-0.2c0-0.1-0.1-0.1-0.1-0.2c-0.2-0.4-0.4-0.8-0.5-1.2c-0.1-0.1-0.2-0.1-0.3-0.1s-0.1-0.1-0.2-0.1s-0.1,0-0.2,0
	l-0.2-0.1h-0.2c0,0,0,0-0.1,0s-0.1,0-0.1,0s-0.1-0.1-0.2-0.1c-0.1,0-0.2,0-0.3,0l-0.2-0.1l-0.1-0.1c-0.3-0.3-0.6-0.6-0.9-0.8
	c-0.5-0.4-0.9-0.9-1.3-1.3s-0.7-0.6-1-1c-0.4-0.4-0.7-0.9-0.9-1.4c-0.1-0.1-0.1-0.2-0.1-0.3c0,0,0-0.1,0-0.1
	c-0.1-0.2-0.2-0.4-0.2-0.6c-0.1-0.1-0.1-0.3-0.1-0.4c0-0.1-0.1-0.2-0.1-0.2c-0.1-0.4,0-0.8,0.2-1c0.1,0,0.3,0,0.4,0
	c0.2,0.1,0.4,0.2,0.6,0.4c0.2,0.1,0.3,0.3,0.5,0.5l0.9,0.9c1.2,1.2,2.4,2.6,3.7,3.8c0.3,0.3,0.6,0.6,0.9,1l0.5,0.5
	c0.1,0.1,0.4,0.4,0.5,0.4s0.2,0,0.3,0c0.6,0,1.4,0,2,0h0.3c0.4,0,0.8,0,1.2,0c0.2-0.5,0.2-1.1,0.4-1.6c0.4-0.1,0.8,0,1.2,0.1
	c0.1,0.1,0.3,0.1,0.4,0.2l0.3,0.1c0.4,0.2,0.9,0.4,1.2,0.6c0.1,0,0.2,0.1,0.2,0.2l-1.2,0.1c-0.1,0-0.2,0-0.2,0s0.1,0.2,0.2,0.3
	c0,0.1,0.1,0.2,0.2,0.3l3,0.7c1,0.8,2.1,1.6,3.1,2.4c0.1,0.1,0.1,0.1,0.2,0.1c0-0.3-0.1-0.7-0.1-1c0-0.2,0-0.4,0-0.5s0-0.1,0-0.1
	s0-0.1,0-0.2c0-0.2-0.1-0.4-0.1-0.6c-0.1-0.1-0.1-0.2-0.1-0.3c-0.1-0.2-0.2-0.4-0.3-0.6c0-0.1-0.1-0.2-0.2-0.4c0,0,0-0.1,0-0.1
	l-0.1-0.1c-0.1-0.2-0.2-0.4-0.3-0.6s-0.2-0.2-0.4-0.3s-0.5-0.4-0.8-0.7c-0.2-0.4-0.5-0.8-0.7-1.2c-0.1,0-0.3,0-0.4-0.1l-0.6-0.1
	l-0.2-0.1c-0.1,0-0.1,0-0.2,0s-0.1-0.1-0.2-0.1h-0.1c-0.1,0-0.2-0.1-0.4-0.1s-0.5-0.1-0.8-0.2c-0.4-0.5-0.8-0.9-1.2-1.3
	c-0.5-0.4-0.9-0.8-1.4-1.2l-0.5-1.6c-0.1-0.2-0.1-0.4-0.1-0.6s0-0.2,0-0.3s-0.1-0.1-0.1-0.2s0-0.2,0-0.2s0-0.1-0.1-0.2s0-0.2,0-0.3
	c-0.1-0.1-0.1-0.2-0.2-0.3c-0.1-0.1-0.1-0.1-0.1-0.2c-0.4-0.5-0.8-1-1.1-1.5c-0.1-0.2-0.3-0.3-0.4-0.4l-0.3-0.3c0,0-0.1,0-0.1-0.1
	s-0.1-0.1-0.1-0.1c-0.3-0.2-0.6-0.4-0.8-0.7l-1.5-1l-0.3-0.5c0-0.1-0.1-0.2-0.2-0.3c-0.2-0.1-0.3-0.1-0.5-0.2
	c-0.4-0.1-0.8-0.3-1.2-0.5c-0.1-0.6-0.2-1.2-0.4-1.8l0,0c-0.2-0.2-0.3-0.5-0.5-0.7s-0.3-0.5-0.5-0.8s-0.3-0.5-0.5-0.7
	s-0.3-0.4-0.4-0.6l0,0c-0.1-0.1,0-0.3,0-0.5s0-0.2-0.1-0.2s0-0.2,0-0.3c-0.1-0.1-0.1-0.3-0.1-0.4c-0.1-0.1-0.1-0.2-0.1-0.3
	c-0.1-0.2-0.1-0.4-0.2-0.6s-0.2-0.4-0.3-0.6l-0.1-0.1c0,0,0-0.1,0-0.1 M340.3,59.6V46.5h-33.6V12.9h-96.2
	c9.1,3.3,17.8,7.6,25.8,12.9h57.3v20.7h-33.5c3.6,4.1,6.9,8.4,9.9,12.9h23.6v20.7h-28.4c-16.2-33.5-48.9-56-86-59.2
	c0.9,2.1,0.7,4.4-0.3,6.4c-0.8,1-1.4,2.1-1.9,3.2c-0.3,1,0.2,1.2,0.9,1.9c0.4,0.4,0.7,0.8,1,1.2c35.2,3.4,65.5,26.5,78.1,59.5h49.4
	V59.5L340.3,59.6z"/>
<path fill="#FFFFFF" d="M270.2,135.1c-1-0.5-1.5-1.1-1.5-1.8v-11.3l14.8,19.9h19.2v-25c0-1,0.4-1.9,1.2-2.5c0.8-0.7,1.7-1.1,2.8-1.1
	v-6h-20.3v6c1.1,0,2.1,0.3,3,1c0.8,0.6,1.2,1.5,1.2,2.5V127l-14.9-19.7h-24.3v6c1.1,0,2.2,0.3,3.1,1c0.8,0.6,1.3,1.5,1.3,2.5v16.3
	c0,0.7-0.5,1.3-1.5,1.9c-0.8,0.5-1.8,0.8-2.8,0.8v5.9h21.2v-6.1C271.8,135.8,270.9,135.6,270.2,135.1 M195.2,141.9h51.4v-14.6H233
	v3.7c0,1.1-0.5,2.2-1.3,3c-0.7,0.9-1.8,1.4-3,1.4h-10.8c-0.5,0-0.9-0.3-1.1-0.7c-0.3-0.4-0.5-0.8-0.5-1.3v-5.9l0.7-0.9h1.9
	c0.6,0.1,1.1,0.3,1.6,0.7c0.3,0.1,0.5,0.3,0.8,0.6c0.4,0.6,0.6,1.3,0.8,2h6.4v-11.6h-6.9c0.1,0.5,0,1.1-0.3,1.6
	c-0.3,0.7-0.6,1.1-1.1,1.1h-2.8c-0.3,0-0.6-0.1-0.9-0.3c-0.4-0.1-0.6-0.3-0.6-0.5v-4.1c0-0.3,0-0.5,0-0.8c0.1-0.7,0.8-1.3,1.5-1.3
	h11.1c1.2,0,2.3,0.6,3,1.4c0.8,0.8,1.3,1.9,1.3,3v4.3h13.6v-15.5h-51.4v6c1.1,0,2.1,0.3,3,1c0.8,0.6,1.3,1.5,1.4,2.5v15.6
	c0,1-0.4,1.9-1.2,2.5c-0.9,0.7-2,1-3.1,1L195.2,141.9z M166,134.5c0-0.3,0.2-0.5,0.4-0.7l24.1-21.5v-5h-47.9v14.2h11.5l0.3-3.9
	c0.2-1.4,1.1-2.7,2.5-3.2c1.4-0.6,2.9-1,4.5-0.9c2.3,0,3.4,0.2,3.5,0.5c0.3,0,0.4,0.2,0.4,0.6c0,0.3-0.2,0.6-0.6,0.9L142,135.9v6
	h49.1V126h-11.9l-0.5,3.9c-0.5,3.8-3.4,5.6-8.8,5.6c-1.9,0-3-0.1-3.2-0.3c-0.3,0-0.7-0.2-0.7-0.5C166.1,134.6,166.1,134.5,166,134.5
	 M109.1,114.3c1-0.5,2.1-0.8,3.2-0.8v-6.2h-26v6.4c1,0,1.9,0.4,2.7,1c0.8,0.4,1.3,1.2,1.4,2.1V130c0,3.3,2,6.1,6,8.4
	c4.4,2.6,10.4,3.9,18,3.9c9.9,0,16.4-2.7,19.6-8.1c0.8-1.3,1.3-2.8,1.4-4.3v-13c0-0.9,0.5-1.8,1.3-2.2c0.9-0.6,1.9-0.9,2.9-0.9v-6.4
	h-22.8v6.3c0.2,0,0.4,0,0.6,0c1.1,0,2.2,0.3,3.1,0.8c0.9,0.4,1.6,1.4,1.6,2.4v13.1c0,1.7-1,3.2-2.5,4c-1.6,0.9-3.4,1.3-5.2,1.3
	c-1.8,0.1-3.6-0.5-5-1.6c-1.3-1-2-2.6-2-4.2v-12.5C107.3,115.7,107.9,114.9,109.1,114.3 M55.5,126.7h1.9c1,0.2,1.9,0.7,2.5,1.4
	c0.2,0.7,0.2,1.5,0.3,2.3h6.7v-12.1h-6.8c0,0.5-0.1,1.1-0.3,1.6c-0.3,0.7-0.6,1.1-1,1.1H56c-0.3,0-0.6-0.1-0.9-0.3
	c-0.4-0.1-0.6-0.3-0.6-0.5v-4.3c0-1.3,0.5-2,1.6-2H66c1.2,0.1,2.4,0.6,3.2,1.5c0.9,0.7,1.6,1.7,1.7,2.9v3.1h13.1v-14.2H33.6v6.2
	c1.1,0,2.2,0.3,3.1,1c0.8,0.6,1.3,1.5,1.3,2.5v15.3c0,1-0.4,1.9-1.2,2.5c-0.9,0.7-1.9,1-3,1v5.9h25.9v-5.9c-1.7-0.1-3.3-0.9-4.4-2.2
	c-0.3-0.3-0.5-0.8-0.5-1.2v-5L55.5,126.7z"/>
<path fill="#FFFFFF" d="M293,154.6V151h4.1v16.3h-2.6v1.9h8.1v-1.9h-2.7V151h4.1v3.6h2.5v-5.6h-16.1v5.6L293,154.6z M269.2,167.3
	h-2.4v1.9h7.7v-1.9h-2.6v-13.8h0.1l9.7,15.7h2.4V151h2.4v-1.9h-7.5v1.9h2.5v12.8h-0.1l-9-14.8h-5.5v1.9h2.4L269.2,167.3z
	 M262.6,169.2v-6h-2.5v4.1h-8.6v-7.7h7.2v-2.2h-7.2V151h8.6v3.5h2.5v-5.4h-16.5v1.9h2.5v16.3h-2.5v1.9L262.6,169.2z M222.9,152
	L222.9,152l6.3,15.5h1.5l6.2-15.5h0.1v15.3h-2.6v1.9h7.8v-1.9h-2.5V151h2.5v-1.9h-6.5l-5.5,13.7H230l-5.5-13.7h-6.9v1.9h2.5v16.3
	h-2.5v1.9h7.9v-1.9h-2.7L222.9,152z M196.4,167.3H194v1.9h7.7v-1.9h-2.6v-13.8h0.1l9.7,15.7h2.4V151h2.4v-1.9h-7.5v1.9h2.4v12.8
	h-0.1l-9-14.8H194v1.9h2.4L196.4,167.3z M189.9,169.2v-1.9h-2.6V151h2.6v-1.9H182v1.9h2.5v16.3H182v1.9L189.9,169.2z M170.9,160.4
	h-6l3-8.6h0.1L170.9,160.4z M163.2,151h2.6l-6,16.3h-2v1.9h7.2v-1.9h-2.6l1.7-5h7.4l1.7,5h-2.6v1.9h7.4v-1.9h-2l-5.8-16.3h2.6v-1.9
	h-9.7L163.2,151z M142.5,154.6V151h4.1v16.3h-2.7v1.9h8.1v-1.9h-2.7V151h4.1v3.6h2.5v-5.6h-16.1v5.6L142.5,154.6z M124.1,151h3.1
	c2.3,0,5,0.3,5,3.1s-2.4,3.6-5,3.6h-3.1V151z M126.6,169.2v-1.9h-2.5v-7.7h3.5c1.9,0,3.8,0.3,3.8,2.3v7.2h5.3v-1.9h-2.5v-5.6
	c0.1-1.5-1-2.9-2.6-3c-0.1,0-0.2,0-0.2,0v0c2.3-1,3.6-2.1,3.6-4.6c0-3.1-2.2-5-5.9-5h-10.3v1.9h2.5v16.3h-2.5v1.9H126.6z
	 M114.6,169.2v-6h-2.5v4.1h-8.6v-7.7h7.2v-2.2h-7.2V151h8.6v3.5h2.5v-5.4H98.1v1.9h2.5v16.3h-2.5v1.9H114.6z M80.5,154.6V151h4.1
	v16.3h-2.7v1.9H90v-1.9h-2.7V151h4.1v3.6H94v-5.6H77.9v5.6L80.5,154.6z M56.7,167.3h-2.4v1.9H62v-1.9h-2.6v-13.8h0.1l9.7,15.7h2.4
	V151h2.4v-1.9h-7.5v1.9h2.4v12.8h-0.1l-9-14.8h-5.5v1.9h2.4V167.3z M50.1,169.2v-6h-2.5v4.1H39v-7.7h7.2v-2.2H39V151h8.6v3.5h2.5
	v-5.4H33.6v1.9h2.5v16.3h-2.5v1.9L50.1,169.2z"/>
</svg>
