<svg version="1.1" id="Capa_1" xmlns="http://www.w3.org/2000/svg" xmlns:xlink="http://www.w3.org/1999/xlink" x="0px" y="0px"
	 width="55px" height="55px" viewBox="0 0 55 55" style="enable-background:new 0 0 55 55;" xml:space="preserve">
<path class="st0" d="M27.5,0.5c-14.9,0-27,12.1-27,27s12.1,27,27,27s27-12.1,27-27C54.5,12.6,42.4,0.5,27.5,0.5z M27.5,52.4
	c-13.8,0-24.9-11.2-24.9-24.9S13.7,2.6,27.5,2.6s24.9,11.2,24.9,24.9C52.4,41.2,41.2,52.4,27.5,52.4z"/>
<path class="st0" d="M27.5,38.9c-0.5,0-1,0.4-1,0.9c0,0,0,0.1,0,0.1V42c0,0.6,0.5,1,1,1s1-0.5,1-1V40c0-0.5-0.4-1-0.9-1
	C27.6,38.9,27.5,38.9,27.5,38.9z"/>
<path class="st0" d="M27.6,9.8h-0.1c-2.2,0-4.3,0.8-5.8,2.4c-1.6,1.5-2.5,3.7-2.5,5.9c0,0.6,0.5,1,1,1c0.6,0,1-0.5,1-1
	c0-1.7,0.7-3.3,1.9-4.5c1.2-1.2,2.8-1.8,4.5-1.8c3.4,0.1,6.1,2.8,6.1,6.1c0,2.2-1.1,4.2-2.9,5.3c-2.8,1.9-4.5,5-4.4,8.4v3
	c0,0.6,0.5,1,1,1s1-0.5,1-1v-2.9c0-2.6,1.3-5.1,3.4-6.6c2.4-1.6,3.8-4.2,3.8-7.1C35.7,13.6,32.1,10,27.6,9.8z"/>
</svg>
