
<svg version="1.1" id="Capa_1" xmlns="http://www.w3.org/2000/svg" xmlns:xlink="http://www.w3.org/1999/xlink" x="0px" y="0px" width="56px" height="55px" viewBox="0 0 56 55" style="enable-background:new 0 0 56 55;" xml:space="preserve">
<style type="text/css">
	.st0{fill:#FFFFFF;}
</style>
<path class="st0" d="M55.4,17.2C54.6,8.4,48.3,2,40.5,2c-5.2,0.1-10,2.8-12.7,7.3C25.3,4.8,20.6,2,15.5,2C7.7,2,1.4,8.4,0.7,17.2
	c-0.2,1.9-0.1,3.9,0.4,5.8c1.2,4.9,3.9,9.3,7.6,12.7L27.8,53l19.4-17.3c3.7-3.4,6.4-7.8,7.6-12.7C55.4,21.1,55.6,19.2,55.4,17.2z
	 M52.8,22.6c-1.1,4.5-3.5,8.5-7,11.6l-17.9,16L10.2,34.1C6.7,31,4.3,27,3.2,22.5c-0.4-1.6-0.6-3.3-0.4-5v-0.1
	c0.6-7.7,6-13.3,12.8-13.3C20.6,4.2,25.1,7.3,27,12l1,2.3l1-2.3c1.9-4.8,6.6-7.9,11.7-7.9c6.8,0,12,5.6,12.8,13.4
	C53.4,19.2,53.2,20.9,52.8,22.6z"/>
</svg>
